<?xml version="1.0" encoding="UTF-8" standalone="yes"?><svg width="32" height="32" version="1.1" xmlns="http://www.w3.org/2000/svg"><svg viewBox="0 0 32 32" version="1.1" xmlns="http://www.w3.org/2000/svg" class=""><rect fill="white" width="32px" height="32px" x="0" y="0"/><g transform="matrix(0.1,0,0,0.1,9.6,9.6)"><g transform="matrix(1,0,0,1,0,0)"><path d="M64 0H128V128H64C28.6538 128 0 99.3462 0 64C0 28.6538 28.6538 0 64 0Z" fill="#000000" stroke="white" stroke-width="0.5800000000000001px" stroke-linecap="square" vector-effect="non-scaling-stroke"/><line x1="80.0035" y1="79.9965" x2="112.004" y2="111.997" stroke="white" fill="none" stroke-width="0.5800000000000001px" stroke-linecap="square" vector-effect="non-scaling-stroke"/><path fill-rule="evenodd" clip-rule="evenodd" d="M80 64C80 72.8366 72.8366 80 64 80C55.1634 80 48 72.8366 48 64C48 55.1634 55.1634 48 64 48C72.8366 48 80 55.1634 80 64ZM64 72C68.4183 72 72 68.4183 72 64C72 59.5817 68.4183 56 64 56C59.5817 56 56 59.5817 56 64C56 68.4183 59.5817 72 64 72Z" fill="white"/></g></g></svg></svg>