<?xml version="1.0" encoding="UTF-8" standalone="yes"?><svg width="32" height="32" version="1.1" xmlns="http://www.w3.org/2000/svg"><svg viewBox="0 0 32 32" version="1.1" xmlns="http://www.w3.org/2000/svg" class=""><rect fill="white" width="32px" height="32px" x="0" y="0"/><g transform="matrix(0.1,0,0,0.1,9.6,9.6)"><g transform="matrix(1,0,0,1,0,0)"><path d="M0 0C0 70.6925 57.3075 128 128 128V0H0Z" fill="#000000" stroke="white" stroke-width="0.5800000000000001px" stroke-linecap="square" vector-effect="non-scaling-stroke"/><path d="M60.1244 67.3837C41.5063 48.7657 32.1342 24.4031 32.0079 0.00145601M82.7518 44.7563C70.3822 32.3867 64.1344 16.2134 64.0086 0.00145196M105.379 22.1289C99.258 16.0077 96.1351 8.02351 96.0105 0.00145196" stroke="white" fill="none" stroke-width="0.5800000000000001px" stroke-linecap="square" vector-effect="non-scaling-stroke"/><line x1="0.5" y1="-0.5" x2="181.5" y2="-0.5" transform="matrix(-0.707107 0.707107 0.707107 0.707107 128.71 0)" stroke="white" stroke-linecap="square" fill="none" stroke-width="0.5800000000000001px" vector-effect="non-scaling-stroke"/><circle cx="16" cy="16" r="11.5" fill="#000000" stroke="#000000" stroke-width="0.5800000000000001px" stroke-linecap="square" vector-effect="non-scaling-stroke"/><circle cx="16" cy="16" r="9" fill="white" stroke="white" stroke-width="0.5800000000000001px" stroke-linecap="square" vector-effect="non-scaling-stroke"/><circle cx="16" cy="112" r="11.5" fill="white" stroke="white" stroke-width="0.5800000000000001px" stroke-linecap="square" vector-effect="non-scaling-stroke"/><circle cx="16" cy="112" r="9" fill="#000000" stroke="#000000" stroke-width="0.5800000000000001px" stroke-linecap="square" vector-effect="non-scaling-stroke"/></g></g></svg></svg>