<?xml version="1.0" encoding="UTF-8" standalone="yes"?><svg width="32" height="32" version="1.1" xmlns="http://www.w3.org/2000/svg"><svg viewBox="0 0 32 32" version="1.1" xmlns="http://www.w3.org/2000/svg" class=""><rect fill="white" width="32px" height="32px" x="0" y="0"/><g transform="matrix(0.1,0,0,0.1,9.6,9.6)"><g transform="matrix(1,0,0,1,0,0)"><path d="M5.59506e-06 128C70.6925 128 128 70.6925 128 0L0 5.59506e-06L5.59506e-06 128Z" fill="#000000" stroke="white" stroke-width="0.5800000000000001px" stroke-linecap="square" vector-effect="non-scaling-stroke"/><path d="M22.1288 22.6299C16.0075 28.7511 8.0234 31.874 0.00134547 31.9986M44.7562 45.2573C32.3866 57.6269 16.2133 63.8747 0.00134277 64.0005M67.3836 67.8847C48.7656 86.5027 24.403 95.8749 0.00134412 96.0012" stroke="white" fill="none" stroke-width="0.5800000000000001px" stroke-linecap="square" vector-effect="non-scaling-stroke"/><path d="M-0.00280762 0L127.997 128" stroke="white" stroke-linecap="square" fill="none" stroke-width="0.5800000000000001px" vector-effect="non-scaling-stroke"/></g></g></svg></svg>