<?xml version="1.0" encoding="UTF-8" standalone="yes"?><svg width="32" height="32" version="1.1" xmlns="http://www.w3.org/2000/svg"><svg viewBox="0 0 32 32" version="1.1" xmlns="http://www.w3.org/2000/svg" class=""><rect fill="white" width="32px" height="32px" x="0" y="0"/><g transform="matrix(0.1,0,0,0.1,9.6,9.6)"><g transform="matrix(1,0,0,1,0,0)"><path d="M0 127.946C0.0292286 57.2783 57.3256 3.08928e-06 128 0C128 70.6823 70.7089 127.984 0.0305092 128C0.0203397 128 0.01017 128 2.36469e-09 128L0 127.946Z" fill="#000000" stroke="white" stroke-width="0.5800000000000001px" stroke-linecap="square" vector-effect="non-scaling-stroke"/><path d="M-0.00268555 0L127.997 128" stroke="white" stroke-linecap="square" fill="none" stroke-width="0.5800000000000001px" vector-effect="non-scaling-stroke"/><path d="M95.9984 0C95.9984 26.3298 85.3985 50.1839 68.2332 67.5278M63.9983 0C63.9983 17.4933 56.9799 33.3473 45.6054 44.8999M31.9983 0C31.9983 8.65672 28.5609 16.5106 22.9766 22.2711" stroke="white" fill="none" stroke-width="0.5800000000000001px" stroke-linecap="square" vector-effect="non-scaling-stroke"/></g></g></svg></svg>