<?xml version="1.0" encoding="UTF-8" standalone="yes"?><svg width="32" height="32" version="1.1" xmlns="http://www.w3.org/2000/svg"><svg viewBox="0 0 32 32" version="1.1" xmlns="http://www.w3.org/2000/svg" class=""><rect fill="white" width="32px" height="32px" x="0" y="0"/><g transform="matrix(0.1,0,0,0.1,9.6,9.6)"><g transform="matrix(1,0,0,1,0,0)"><path d="M0.0541 0C70.7217 0.0292317 128 57.3256 128 128C57.3177 128 0.0164917 70.7089 7.62806e-06 0.0305091C7.62851e-06 0.0203397 -4.44317e-10 0.01017 0 0H0.0541Z" fill="#000000" stroke="white" stroke-width="0.5800000000000001px" stroke-linecap="square" vector-effect="non-scaling-stroke"/><line x1="0.5" y1="-0.5" x2="181.5" y2="-0.5" transform="matrix(-0.707107 0.707107 0.707107 0.707107 128.71 0)" stroke="white" stroke-linecap="square" fill="none" stroke-width="0.5800000000000001px" vector-effect="non-scaling-stroke"/><path fill-rule="evenodd" clip-rule="evenodd" d="M80 64C80 72.8366 72.8366 80 64 80C55.1634 80 48 72.8366 48 64C48 55.1634 55.1634 48 64 48C72.8366 48 80 55.1634 80 64ZM64 72C68.4183 72 72 68.4183 72 64C72 59.5817 68.4183 56 64 56C59.5817 56 56 59.5817 56 64C56 68.4183 59.5817 72 64 72Z" fill="white"/></g></g></svg></svg>