<?xml version="1.0" encoding="UTF-8" standalone="yes"?><svg width="32" height="32" version="1.1" xmlns="http://www.w3.org/2000/svg"><svg viewBox="0 0 32 32" version="1.1" xmlns="http://www.w3.org/2000/svg" class=""><rect fill="white" width="32px" height="32px" x="0" y="0"/><g transform="matrix(0.1,0,0,0.1,9.6,9.6)"><g transform="matrix(1,0,0,1,0,0)"><path d="M5.59506e-06 128C70.6925 128 128 70.6925 128 0L0 5.59506e-06L5.59506e-06 128Z" fill="#000000" stroke="white" stroke-width="0.5800000000000001px" stroke-linecap="square" vector-effect="non-scaling-stroke"/><path d="M0 128C4.63574e-06 92.6488 14.3309 60.6449 37.5 37.4807" stroke="white" fill="none" stroke-width="0.5800000000000001px" stroke-linecap="square" vector-effect="non-scaling-stroke"/><path d="M32 128C32 101.492 42.7436 77.4939 60.1138 60.1216" stroke="white" fill="none" stroke-width="0.5800000000000001px" stroke-linecap="square" vector-effect="non-scaling-stroke"/><path d="M64 128C64 110.328 71.1626 94.3287 82.7432 82.7471" stroke="white" fill="none" stroke-width="0.5800000000000001px" stroke-linecap="square" vector-effect="non-scaling-stroke"/><path d="M95.6284 128C95.6284 119.164 99.2097 111.164 105 105.374" stroke="white" fill="none" stroke-width="0.5800000000000001px" stroke-linecap="square" vector-effect="non-scaling-stroke"/><path d="M-0.00280762 0L127.997 128" stroke="white" stroke-linecap="square" fill="none" stroke-width="0.5800000000000001px" vector-effect="non-scaling-stroke"/></g></g></svg></svg>