<?xml version="1.0" encoding="UTF-8" standalone="yes"?><svg width="512" height="512" xmlns="http://www.w3.org/2000/svg"><svg viewBox="0 0 512 512" version="1.1" xmlns="http://www.w3.org/2000/svg" class=""><rect fill="white" width="512px" height="512px" x="0" y="0"/><g transform="matrix(1.6,0,0,1.6,153.6,153.6)"><g transform="matrix(1,0,0,1,0,0)"><path d="M0 0C0 70.6925 57.3075 128 128 128V0H0Z" fill="#000000" stroke="white" stroke-width="4.33px" stroke-linecap="square" vector-effect="non-scaling-stroke"/><circle cx="16" cy="16" r="8" fill="#000000" stroke="#000000" stroke-width="4.33px" stroke-linecap="square" vector-effect="non-scaling-stroke"/><line x1="0.5" y1="-0.5" x2="181.5" y2="-0.5" transform="matrix(-0.707107 0.707107 0.707107 0.707107 128.71 0)" stroke="white" stroke-linecap="square" fill="none" stroke-width="4.33px" vector-effect="non-scaling-stroke"/><path fill-rule="evenodd" clip-rule="evenodd" d="M48 32C48 40.8366 40.8366 48 32 48C23.1634 48 16 40.8366 16 32C16 23.1634 23.1634 16 32 16C40.8366 16 48 23.1634 48 32ZM32 40C36.4183 40 40 36.4183 40 32C40 27.5817 36.4183 24 32 24C27.5817 24 24 27.5817 24 32C24 36.4183 27.5817 40 32 40Z" fill="white"/></g></g></svg></svg>