<?xml version="1.0" encoding="UTF-8" standalone="yes"?><svg width="512" height="512" xmlns="http://www.w3.org/2000/svg"><svg viewBox="0 0 512 512" version="1.1" xmlns="http://www.w3.org/2000/svg" class=""><rect fill="white" width="512px" height="512px" x="0" y="0"/><g transform="matrix(1.6,0,0,1.6,153.6,153.6)"><g transform="matrix(1,0,0,1,0,0)"><path d="M128 0C57.3075 8.42999e-07 -8.42999e-07 57.3075 0 128H128V0Z" fill="#000000" stroke="white" stroke-width="4.33px" stroke-linecap="square" vector-effect="non-scaling-stroke"/><path d="M32 0L32 128" stroke="white" fill="none" stroke-width="4.33px" stroke-linecap="square" vector-effect="non-scaling-stroke"/><path fill-rule="evenodd" clip-rule="evenodd" d="M48 96C48 104.837 40.8366 112 32 112C23.1634 112 16 104.837 16 96C16 87.1634 23.1634 80 32 80C40.8366 80 48 87.1634 48 96ZM32 104C36.4183 104 40 100.418 40 96C40 91.5817 36.4183 88 32 88C27.5817 88 24 91.5817 24 96C24 100.418 27.5817 104 32 104Z" fill="white"/></g></g></svg></svg>