<?xml version="1.0" encoding="UTF-8" standalone="yes"?><svg width="512" height="512" xmlns="http://www.w3.org/2000/svg"><svg viewBox="0 0 512 512" version="1.1" xmlns="http://www.w3.org/2000/svg" class=""><rect fill="white" width="512px" height="512px" x="0" y="0"/><g transform="matrix(1.6,0,0,1.6,153.6,153.6)"><g transform="matrix(1,0,0,1,0,0)"><path d="M64 128H0L5.59506e-06 -7.62939e-06L64 -2.03434e-06C99.3462 1.05573e-06 128 28.6538 128 64C128 99.3462 99.3462 128 64 128Z" fill="#000000" stroke="white" stroke-width="4.33px" stroke-linecap="square" vector-effect="non-scaling-stroke"/><path d="M64 16C90.5097 16 112 37.4903 112 64C112 90.5097 90.5097 112 64 112" stroke="white" fill="none" stroke-width="4.33px" stroke-linecap="square" vector-effect="non-scaling-stroke"/><line x1="128" y1="64" x2="-8.87604e-09" y2="64" stroke="white" fill="none" stroke-width="4.33px" stroke-linecap="square" vector-effect="non-scaling-stroke"/></g></g></svg></svg>