<?xml version="1.0" encoding="UTF-8" standalone="yes"?><svg width="512" height="512" xmlns="http://www.w3.org/2000/svg"><svg viewBox="0 0 512 512" version="1.1" xmlns="http://www.w3.org/2000/svg" class=""><rect fill="white" width="512px" height="512px" x="0" y="0"/><g transform="matrix(1.6,0,0,1.6,153.6,153.6)"><g transform="matrix(1,0,0,1,0,0)"><path d="M0.0541 0C70.7217 0.0292317 128 57.3256 128 128C57.3177 128 0.0164917 70.7089 7.62806e-06 0.0305091C7.62851e-06 0.0203397 -4.44317e-10 0.01017 0 0H0.0541Z" fill="#000000" stroke="white" stroke-width="4.33px" stroke-linecap="square" vector-effect="non-scaling-stroke"/><path d="M0 128L128 0" stroke="white" stroke-linecap="square" fill="none" stroke-width="4.33px" vector-effect="non-scaling-stroke"/><path d="M-0.701724 31.9914C25.6281 31.9914 49.4822 42.5913 66.8261 59.7565M-0.701723 63.9914C16.7916 63.9914 32.6456 71.0098 44.1982 82.3844M-0.701722 95.9914C7.955 95.9914 15.8089 99.4288 21.5694 105.013" stroke="white" fill="none" stroke-width="4.33px" stroke-linecap="square" vector-effect="non-scaling-stroke"/></g></g></svg></svg>