<?xml version="1.0" encoding="UTF-8" standalone="yes"?><svg width="512" height="512" xmlns="http://www.w3.org/2000/svg"><svg viewBox="0 0 512 512" version="1.1" xmlns="http://www.w3.org/2000/svg" class=""><rect fill="white" width="512px" height="512px" x="0" y="0"/><g transform="matrix(1.6,0,0,1.6,153.6,153.6)"><g transform="matrix(1,0,0,1,0,0)"><path d="M0 0C0 70.6925 57.3075 128 128 128V0H0Z" fill="#000000" stroke="white" stroke-width="4.33px" stroke-linecap="square" vector-effect="non-scaling-stroke"/><line x1="64" y1="2.18557e-08" x2="64" y2="128" stroke="white" fill="none" stroke-width="4.33px" stroke-linecap="square" vector-effect="non-scaling-stroke"/><line x1="96" y1="2.18557e-08" x2="96" y2="128" stroke="white" fill="none" stroke-width="4.33px" stroke-linecap="square" vector-effect="non-scaling-stroke"/><path fill-rule="evenodd" clip-rule="evenodd" d="M112 32C112 40.8366 104.837 48 96 48C87.1634 48 80 40.8366 80 32C80 23.1634 87.1634 16 96 16C104.837 16 112 23.1634 112 32ZM96 40C100.418 40 104 36.4183 104 32C104 27.5817 100.418 24 96 24C91.5817 24 88 27.5817 88 32C88 36.4183 91.5817 40 96 40Z" fill="white"/></g></g></svg></svg>