<?xml version="1.0" encoding="UTF-8" standalone="yes"?><svg width="64" height="64" xmlns="http://www.w3.org/2000/svg"><svg viewBox="0 0 64 64" version="1.1" xmlns="http://www.w3.org/2000/svg" class=""><rect fill="white" width="64px" height="64px" x="0" y="0"/><g transform="matrix(0.2,0,0,0.2,19.2,19.2)"><g transform="matrix(1,0,0,1,0,0)"><path d="M0 127.946C0.0292286 57.2783 57.3256 3.08928e-06 128 0C128 70.6823 70.7089 127.984 0.0305092 128C0.0203397 128 0.01017 128 2.36469e-09 128L0 127.946Z" fill="#000000" stroke="white" stroke-width="0.8300000000000001px" stroke-linecap="square" vector-effect="non-scaling-stroke"/><path d="M0 128L128 0" stroke="white" stroke-linecap="square" fill="none" stroke-width="0.8300000000000001px" vector-effect="non-scaling-stroke"/><path d="M0 0C35.3511 0 67.3551 14.3309 90.5193 37.5" stroke="white" fill="none" stroke-width="0.8300000000000001px" stroke-linecap="square" vector-effect="non-scaling-stroke"/><path d="M0 32C26.5077 32 50.5061 42.7436 67.8783 60.1138" stroke="white" fill="none" stroke-width="0.8300000000000001px" stroke-linecap="square" vector-effect="non-scaling-stroke"/><path d="M0 64C17.6721 64 33.6713 71.1626 45.2529 82.7432" stroke="white" fill="none" stroke-width="0.8300000000000001px" stroke-linecap="square" vector-effect="non-scaling-stroke"/><path d="M0 95.6284C8.83603 95.6284 16.8356 99.2097 22.6264 105" stroke="white" fill="none" stroke-width="0.8300000000000001px" stroke-linecap="square" vector-effect="non-scaling-stroke"/></g></g></svg></svg>