<?xml version="1.0" encoding="UTF-8" standalone="yes"?><svg width="64" height="64" xmlns="http://www.w3.org/2000/svg"><svg viewBox="0 0 64 64" version="1.1" xmlns="http://www.w3.org/2000/svg" class=""><rect fill="white" width="64px" height="64px" x="0" y="0"/><g transform="matrix(0.2,0,0,0.2,19.2,19.2)"><g transform="matrix(1,0,0,1,0,0)"><path d="M5.59506e-06 128C70.6925 128 128 70.6925 128 0L0 5.59506e-06L5.59506e-06 128Z" fill="#000000" stroke="white" stroke-width="0.8300000000000001px" stroke-linecap="square" vector-effect="non-scaling-stroke"/><line x1="-0.0029152" x2="127.983" y2="127.986" stroke="white" stroke-linecap="square" fill="none" stroke-width="0.8300000000000001px" vector-effect="non-scaling-stroke"/><path d="M96 0C96 53.0193 53.0193 96 0 96" stroke="white" fill="none" stroke-width="0.8300000000000001px" stroke-linecap="square" vector-effect="non-scaling-stroke"/><path d="M64 0C64 35.3462 35.3462 64 0 64" stroke="white" fill="none" stroke-width="0.8300000000000001px" stroke-linecap="square" vector-effect="non-scaling-stroke"/><path d="M32 0C32 17.6731 17.6731 32 0 32" stroke="white" fill="none" stroke-width="0.8300000000000001px" stroke-linecap="square" vector-effect="non-scaling-stroke"/></g></g></svg></svg>