<?xml version="1.0" encoding="UTF-8" standalone="yes"?><svg width="64" height="64" xmlns="http://www.w3.org/2000/svg"><svg viewBox="0 0 64 64" version="1.1" xmlns="http://www.w3.org/2000/svg" class=""><rect fill="white" width="64px" height="64px" x="0" y="0"/><g transform="matrix(0.2,0,0,0.2,19.2,19.2)"><g transform="matrix(1,0,0,1,0,0)"><path d="M0 127.946C0.0292286 57.2783 57.3256 3.08928e-06 128 0C128 70.6823 70.7089 127.984 0.0305092 128C0.0203397 128 0.01017 128 2.36469e-09 128L0 127.946Z" fill="#000000" stroke="white" stroke-width="0.8300000000000001px" stroke-linecap="square" vector-effect="non-scaling-stroke"/><path d="M256 0L128 128" stroke="white" stroke-linecap="square" fill="none" stroke-width="0.8300000000000001px" vector-effect="non-scaling-stroke"/><circle cx="64" cy="64" r="32" stroke="white" fill="none" stroke-width="0.8300000000000001px" stroke-linecap="square" vector-effect="non-scaling-stroke"/><circle cx="96" cy="32" r="11.5" fill="#000000" stroke="#000000" stroke-width="0.8300000000000001px" stroke-linecap="square" vector-effect="non-scaling-stroke"/><circle cx="96" cy="32" r="9" fill="white" stroke="white" stroke-width="0.8300000000000001px" stroke-linecap="square" vector-effect="non-scaling-stroke"/><circle cx="32" cy="96" r="11.5" fill="#000000" stroke="#000000" stroke-width="0.8300000000000001px" stroke-linecap="square" vector-effect="non-scaling-stroke"/><circle cx="32" cy="96" r="9" fill="white" stroke="white" stroke-width="0.8300000000000001px" stroke-linecap="square" vector-effect="non-scaling-stroke"/></g></g></svg></svg>