<?xml version="1.0" encoding="UTF-8" standalone="yes"?><svg width="1024" height="1024" xmlns="http://www.w3.org/2000/svg"><svg viewBox="0 0 1024 1024" version="1.1" xmlns="http://www.w3.org/2000/svg" class=""><rect fill="white" width="1024px" height="1024px" x="0" y="0"/><g transform="matrix(3.2,0,0,3.2,307.2,307.2)"><g transform="matrix(1,0,0,1,0,0)"><path d="M64 0H128V128H64C28.6538 128 0 99.3462 0 64C0 28.6538 28.6538 0 64 0Z" fill="#000000" stroke="white" stroke-width="8.33px" stroke-linecap="square" vector-effect="non-scaling-stroke"/><line x1="-0.0029152" x2="127.983" y2="127.986" stroke="white" stroke-linecap="square" fill="none" stroke-width="8.33px" vector-effect="non-scaling-stroke"/><path d="M0 128C4.63574e-06 92.6489 14.3309 60.6449 37.5 37.4807" stroke="white" fill="none" stroke-width="8.33px" stroke-linecap="square" vector-effect="non-scaling-stroke"/><path d="M32 128C32 101.492 42.7436 77.4939 60.1138 60.1217" stroke="white" fill="none" stroke-width="8.33px" stroke-linecap="square" vector-effect="non-scaling-stroke"/><path d="M64 128C64 110.328 71.1626 94.3287 82.7432 82.7471" stroke="white" fill="none" stroke-width="8.33px" stroke-linecap="square" vector-effect="non-scaling-stroke"/><path d="M95.6284 128C95.6284 119.164 99.2097 111.164 105 105.374" stroke="white" fill="none" stroke-width="8.33px" stroke-linecap="square" vector-effect="non-scaling-stroke"/></g></g></svg></svg>