<?xml version="1.0" encoding="UTF-8" standalone="yes"?><svg width="1024" height="1024" xmlns="http://www.w3.org/2000/svg"><svg viewBox="0 0 1024 1024" version="1.1" xmlns="http://www.w3.org/2000/svg" class=""><rect fill="white" width="1024px" height="1024px" x="0" y="0"/><g transform="matrix(3.2,0,0,3.2,307.2,307.2)"><g transform="matrix(1,0,0,1,0,0)"><path d="M64 128H0L5.59506e-06 0L64 5.59506e-06C99.3462 8.68512e-06 128 28.6538 128 64C128 99.3462 99.3462 128 64 128Z" fill="#000000" stroke="white" stroke-width="8.33px" stroke-linecap="square" vector-effect="non-scaling-stroke"/><path d="M128 64L0 64" stroke="white" fill="none" stroke-width="8.33px" stroke-linecap="square" vector-effect="non-scaling-stroke"/><path d="M64 32C81.6731 32 96 46.3269 96 64" stroke="white" fill="none" stroke-width="8.33px" stroke-linecap="square" vector-effect="non-scaling-stroke"/><path d="M64 16C90.5097 16 112 37.4903 112 64" stroke="white" fill="none" stroke-width="8.33px" stroke-linecap="square" vector-effect="non-scaling-stroke"/></g></g></svg></svg>