<?xml version="1.0" encoding="UTF-8" standalone="yes"?><svg width="1024" height="1024" xmlns="http://www.w3.org/2000/svg"><svg viewBox="0 0 1024 1024" version="1.1" xmlns="http://www.w3.org/2000/svg" class=""><rect fill="white" width="1024px" height="1024px" x="0" y="0"/><g transform="matrix(3.2,0,0,3.2,307.2,307.2)"><g transform="matrix(1,0,0,1,0,0)"><path d="M128 0C57.3075 8.42999e-07 -8.42999e-07 57.3075 0 128H128V0Z" fill="#000000" stroke="white" stroke-width="8.33px" stroke-linecap="square" vector-effect="non-scaling-stroke"/><line x1="-0.0029152" x2="127.983" y2="127.986" stroke="white" stroke-linecap="square" fill="none" stroke-width="8.33px" vector-effect="non-scaling-stroke"/><path d="M128 0C128 35.3511 113.669 67.3551 90.5 90.5193" stroke="white" fill="none" stroke-width="8.33px" stroke-linecap="square" vector-effect="non-scaling-stroke"/><path d="M96 0C96 26.5077 85.2564 50.5061 67.8862 67.8783" stroke="white" fill="none" stroke-width="8.33px" stroke-linecap="square" vector-effect="non-scaling-stroke"/><path d="M64 0C64 17.6721 56.8374 33.6713 45.2568 45.2529" stroke="white" fill="none" stroke-width="8.33px" stroke-linecap="square" vector-effect="non-scaling-stroke"/><path d="M32.3716 0C32.3716 8.83603 28.7903 16.8356 23 22.6264" stroke="white" fill="none" stroke-width="8.33px" stroke-linecap="square" vector-effect="non-scaling-stroke"/></g></g></svg></svg>