<?xml version="1.0" encoding="UTF-8" standalone="yes"?><svg width="1024" height="1024" xmlns="http://www.w3.org/2000/svg"><svg viewBox="0 0 1024 1024" version="1.1" xmlns="http://www.w3.org/2000/svg" class=""><rect fill="white" width="1024px" height="1024px" x="0" y="0"/><g transform="matrix(3.2,0,0,3.2,307.2,307.2)"><g transform="matrix(1,0,0,1,0,0)"><path d="M0.0541 0C70.7217 0.0292317 128 57.3256 128 128C57.3177 128 0.0164917 70.7089 7.62806e-06 0.0305091C7.62851e-06 0.0203397 -4.44317e-10 0.01017 0 0H0.0541Z" fill="#000000" stroke="white" stroke-width="8.33px" stroke-linecap="square" vector-effect="non-scaling-stroke"/><path d="M-0.00280762 0L127.997 128" stroke="white" stroke-linecap="square" fill="none" stroke-width="8.33px" vector-effect="non-scaling-stroke"/><line y1="-0.5" x2="45.2548" y2="-0.5" transform="matrix(0.707107 -0.707107 -0.707107 -0.707107 79.65 47.6499)" stroke="white" fill="none" stroke-width="8.33px" stroke-linecap="square" vector-effect="non-scaling-stroke"/><line x1="15.9964" y1="111.997" x2="47.9964" y2="79.9965" stroke="white" fill="none" stroke-width="8.33px" stroke-linecap="square" vector-effect="non-scaling-stroke"/><circle cx="64" cy="64" r="11.5" fill="#000000" stroke="#000000" stroke-width="8.33px" stroke-linecap="square" vector-effect="non-scaling-stroke"/><circle cx="64" cy="64" r="9" fill="white" stroke="white" stroke-width="8.33px" stroke-linecap="square" vector-effect="non-scaling-stroke"/></g></g></svg></svg>