<?xml version="1.0" encoding="UTF-8" standalone="yes"?><svg width="256" height="256" xmlns="http://www.w3.org/2000/svg"><svg viewBox="0 0 256 256" version="1.1" xmlns="http://www.w3.org/2000/svg" class=""><rect fill="white" width="256px" height="256px" x="0" y="0"/><g transform="matrix(0.8,0,0,0.8,76.8,76.8)"><g transform="matrix(1,0,0,1,0,0)"><path d="M0 0C0 70.6925 57.3075 128 128 128V0H0Z" fill="#000000" stroke="white" stroke-width="2.33px" stroke-linecap="square" vector-effect="non-scaling-stroke"/><path d="M-0.00292969 0L127.997 128" stroke="white" stroke-linecap="square" fill="none" stroke-width="2.33px" vector-effect="non-scaling-stroke"/><path d="M2.03434e-06 128C70.6924 128 128 70.6925 128 0" stroke="white" fill="none" stroke-width="2.33px" stroke-linecap="square" vector-effect="non-scaling-stroke"/><path d="M1.52575e-06 96C53.0193 96 96 53.0193 96 0" stroke="white" fill="none" stroke-width="2.33px" stroke-linecap="square" vector-effect="non-scaling-stroke"/><path d="M1.01717e-06 64C35.3462 64 64 35.3462 64 0" stroke="white" fill="none" stroke-width="2.33px" stroke-linecap="square" vector-effect="non-scaling-stroke"/><path d="M5.08584e-07 32C17.6731 32 32 17.6731 32 0" stroke="white" fill="none" stroke-width="2.33px" stroke-linecap="square" vector-effect="non-scaling-stroke"/></g></g></svg></svg>