<?xml version="1.0" encoding="UTF-8" standalone="yes"?><svg width="256" height="256" xmlns="http://www.w3.org/2000/svg"><svg viewBox="0 0 256 256" version="1.1" xmlns="http://www.w3.org/2000/svg" class=""><rect fill="white" width="256px" height="256px" x="0" y="0"/><g transform="matrix(0.8,0,0,0.8,76.8,76.8)"><g transform="matrix(1,0,0,1,0,0)"><rect width="128" height="128" xmlns="http://www.w3.org/2000/svg" fill="#000000" stroke="white" stroke-width="2.33px" stroke-linecap="square" vector-effect="non-scaling-stroke"/><line x1="32" y1="2.18557e-08" x2="32" y2="128" stroke="white" fill="none" stroke-width="2.33px" stroke-linecap="square" vector-effect="non-scaling-stroke"/><path fill-rule="evenodd" clip-rule="evenodd" d="M48 64C48 72.8366 40.8366 80 32 80C23.1634 80 16 72.8366 16 64C16 55.1634 23.1634 48 32 48C40.8366 48 48 55.1634 48 64ZM32 72C36.4183 72 40 68.4183 40 64C40 59.5817 36.4183 56 32 56C27.5817 56 24 59.5817 24 64C24 68.4183 27.5817 72 32 72Z" fill="white"/></g></g></svg></svg>