<?xml version="1.0" encoding="UTF-8" standalone="yes"?><svg width="128" height="128" xmlns="http://www.w3.org/2000/svg"><svg viewBox="0 0 128 128" version="1.1" xmlns="http://www.w3.org/2000/svg" class=""><rect fill="white" width="128px" height="128px" x="0" y="0"/><g transform="matrix(0.4,0,0,0.4,38.4,38.4)"><g transform="matrix(1,0,0,1,0,0)"><path d="M0.0541 0C70.7217 0.0292317 128 57.3256 128 128C57.3177 128 0.0164917 70.7089 7.62806e-06 0.0305091C7.62851e-06 0.0203397 -4.44317e-10 0.01017 0 0H0.0541Z" fill="#000000" stroke="white" stroke-width="1.33px" stroke-linecap="square" vector-effect="non-scaling-stroke"/><line x1="-0.0029152" x2="63.29" y2="63.2929" stroke="white" stroke-linecap="square" fill="none" stroke-width="1.33px" vector-effect="non-scaling-stroke"/><line x1="0.5" y1="-0.5" x2="181.5" y2="-0.5" transform="matrix(-0.707107 0.707107 0.707107 0.707107 128.71 0)" stroke="white" stroke-linecap="square" fill="none" stroke-width="1.33px" vector-effect="non-scaling-stroke"/><line x1="128" y1="32.0072" x2="32.7071" y2="127.3" stroke="white" stroke-linecap="square" fill="none" stroke-width="1.33px" vector-effect="non-scaling-stroke"/><line x1="128" y1="64.0072" x2="64.7071" y2="127.3" stroke="white" stroke-linecap="square" fill="none" stroke-width="1.33px" vector-effect="non-scaling-stroke"/><line x1="128" y1="96.0072" x2="96.7071" y2="127.3" stroke="white" stroke-linecap="square" fill="none" stroke-width="1.33px" vector-effect="non-scaling-stroke"/></g></g></svg></svg>