<?xml version="1.0" encoding="UTF-8" standalone="yes"?><svg width="128" height="128" xmlns="http://www.w3.org/2000/svg"><svg viewBox="0 0 128 128" version="1.1" xmlns="http://www.w3.org/2000/svg" class=""><rect fill="white" width="128px" height="128px" x="0" y="0"/><g transform="matrix(0.4,0,0,0.4,38.4,38.4)"><g transform="matrix(1,0,0,1,0,0)"><path d="M0 127.946C0.0292286 57.2783 57.3256 3.08928e-06 128 0C128 70.6823 70.7089 127.984 0.0305092 128C0.0203397 128 0.01017 128 2.36469e-09 128L0 127.946Z" fill="#000000" stroke="white" stroke-width="1.33px" stroke-linecap="square" vector-effect="non-scaling-stroke"/><path d="M127.997 0L-0.00291443 128" stroke="white" stroke-linecap="square" fill="none" stroke-width="1.33px" vector-effect="non-scaling-stroke"/><circle cx="64" cy="64" r="16" stroke="white" fill="none" stroke-width="1.33px" stroke-linecap="square" vector-effect="non-scaling-stroke"/><path d="M86.6274 41.3726C74.1306 28.8758 53.8694 28.8758 41.3726 41.3726C28.8758 53.8694 28.8758 74.1306 41.3726 86.6274" stroke="white" fill="none" stroke-width="1.33px" stroke-linecap="square" vector-effect="non-scaling-stroke"/></g></g></svg></svg>