<?xml version="1.0" encoding="UTF-8" standalone="yes"?><svg width="128" height="128" xmlns="http://www.w3.org/2000/svg"><svg viewBox="0 0 128 128" version="1.1" xmlns="http://www.w3.org/2000/svg" class=""><rect fill="white" width="128px" height="128px" x="0" y="0"/><g transform="matrix(0.4,0,0,0.4,38.4,38.4)"><g transform="matrix(1,0,0,1,0,0)"><circle cx="64" cy="64" r="64" fill="#000000" stroke="white" stroke-width="1.33px" stroke-linecap="square" vector-effect="non-scaling-stroke"/><path d="M128 128L0 0" stroke="white" stroke-linecap="square" fill="none" stroke-width="1.33px" vector-effect="non-scaling-stroke"/><path d="M30.0589 30.0589C48.804 11.3137 79.196 11.3137 97.9411 30.0589C116.686 48.804 116.686 79.196 97.9411 97.9411" stroke="white" fill="none" stroke-width="1.33px" stroke-linecap="square" vector-effect="non-scaling-stroke"/><path d="M52.6863 52.6863C58.9347 46.4379 69.0653 46.4379 75.3137 52.6863C81.5621 58.9347 81.5621 69.0653 75.3137 75.3137" stroke="white" fill="none" stroke-width="1.33px" stroke-linecap="square" vector-effect="non-scaling-stroke"/><path d="M41.3726 41.3726C53.8694 28.8758 74.1306 28.8758 86.6274 41.3726C99.1242 53.8694 99.1242 74.1306 86.6274 86.6274" stroke="white" fill="none" stroke-width="1.33px" stroke-linecap="square" vector-effect="non-scaling-stroke"/></g></g></svg></svg>