<?xml version="1.0" encoding="UTF-8" standalone="yes"?><svg width="128" height="128" xmlns="http://www.w3.org/2000/svg"><svg viewBox="0 0 128 128" version="1.1" xmlns="http://www.w3.org/2000/svg" class=""><rect fill="white" width="128px" height="128px" x="0" y="0"/><g transform="matrix(0.4,0,0,0.4,38.4,38.4)"><g transform="matrix(1,0,0,1,0,0)"><path d="M128 128C128 57.3076 70.6925 6.18013e-06 1.11901e-05 0L0 128L128 128Z" fill="#000000" stroke="white" stroke-width="1.33px" stroke-linecap="square" vector-effect="non-scaling-stroke"/><path d="M-0.00292969 0L127.997 128" stroke="white" stroke-linecap="square" fill="none" stroke-width="1.33px" vector-effect="non-scaling-stroke"/><path d="M0 128C4.63574e-06 92.6489 14.3309 60.6449 37.5 37.4807" stroke="white" fill="none" stroke-width="1.33px" stroke-linecap="square" vector-effect="non-scaling-stroke"/><path d="M32 128C32 101.492 42.7436 77.4939 60.1138 60.1217" stroke="white" fill="none" stroke-width="1.33px" stroke-linecap="square" vector-effect="non-scaling-stroke"/><path d="M64 128C64 110.328 71.1626 94.3287 82.7432 82.7471" stroke="white" fill="none" stroke-width="1.33px" stroke-linecap="square" vector-effect="non-scaling-stroke"/><path d="M95.6284 128C95.6284 119.164 99.2097 111.164 105 105.374" stroke="white" fill="none" stroke-width="1.33px" stroke-linecap="square" vector-effect="non-scaling-stroke"/></g></g></svg></svg>