<?xml version="1.0" encoding="UTF-8" standalone="yes"?><svg width="128" height="128" xmlns="http://www.w3.org/2000/svg"><svg viewBox="0 0 128 128" version="1.1" xmlns="http://www.w3.org/2000/svg" class=""><rect fill="white" width="128px" height="128px" x="0" y="0"/><g transform="matrix(0.4,0,0,0.4,38.4,38.4)"><g transform="matrix(1,0,0,1,0,0)"><path d="M0.0541 0C70.7217 0.0292317 128 57.3256 128 128C57.3177 128 0.0164917 70.7089 7.62806e-06 0.0305091C7.62851e-06 0.0203397 -4.44317e-10 0.01017 0 0H0.0541Z" fill="#000000" stroke="white" stroke-width="1.33px" stroke-linecap="square" vector-effect="non-scaling-stroke"/><path d="M128 0L0 128" stroke="white" stroke-linecap="square" fill="none" stroke-width="1.33px" vector-effect="non-scaling-stroke"/><path d="M128 96C101.492 96 77.4939 85.2564 60.1217 67.8862" stroke="white" fill="none" stroke-width="1.33px" stroke-linecap="square" vector-effect="non-scaling-stroke"/><path d="M128 64C110.328 64 94.3287 56.8374 82.7471 45.2568" stroke="white" fill="none" stroke-width="1.33px" stroke-linecap="square" vector-effect="non-scaling-stroke"/><path d="M128 32.3716C119.164 32.3716 111.164 28.7903 105.374 23" stroke="white" fill="none" stroke-width="1.33px" stroke-linecap="square" vector-effect="non-scaling-stroke"/></g></g></svg></svg>